<?xml version="1.0" encoding="UTF-8"?>
<!-- Created with Inkscape (http://www.inkscape.org/) -->
<svg width="64" height="64" version="1.1" viewBox="0 0 64 64" xmlns="http://www.w3.org/2000/svg" xmlns:cc="http://creativecommons.org/ns#" xmlns:dc="http://purl.org/dc/elements/1.1/" xmlns:rdf="http://www.w3.org/1999/02/22-rdf-syntax-ns#">
 <metadata>
  <rdf:RDF>
   <cc:Work rdf:about="">
    <dc:format>image/svg+xml</dc:format>
    <dc:type rdf:resource="http://purl.org/dc/dcmitype/StillImage"/>
    <dc:title/>
   </cc:Work>
  </rdf:RDF>
 </metadata>
 <g transform="translate(-5.7732 .47222)">
  <path d="m16.099 48.717c-1.2439-1.5861-1.2085-1.6214 0.37756-0.37756 0.9625 0.75484 1.75 1.5423 1.75 1.75 0 0.82303-0.82119 0.2933-2.1276-1.3724zm41.052-1-2.4243-2.75 2.75 2.4243c2.5703 2.2659 3.2086 3.0757 2.4243 3.0757-0.17913 0-1.4166-1.2375-2.75-2.75zm2.8882-11.933c0.72188-0.28887 1.5844-0.25334 1.9167 0.07895 0.33229 0.33229-0.25833 0.56864-1.3125 0.52522-1.1649-0.04798-1.4019-0.28494-0.60417-0.60417zm-9.3125-27.317c0.99549-1.1 2.035-2 2.31-2s-0.31449 0.9-1.31 2-2.035 2-2.31 2 0.31449-0.9 1.31-2z" fill="#fef3e8"/>
  <path d="m58.784 26.56c-0.30822-0.49871 0.34022-0.67122 1.441-0.38337 2.335 0.61061 2.6301 1.2901 0.5604 1.2901-0.79254 0-1.6932-0.40803-2.0014-0.90674z" fill="#fde7d0"/>
  <path d="m15.227 15.09c0-0.20766 0.7875-0.99516 1.75-1.75 1.5861-1.2439 1.6214-1.2085 0.37756 0.37756-1.3064 1.6657-2.1276 2.1955-2.1276 1.3724zm16.812-8.3056c0.72188-0.28887 1.5844-0.25334 1.9167 0.078947 0.33229 0.33229-0.25833 0.56864-1.3125 0.52522-1.1649-0.047984-1.4019-0.28494-0.60417-0.60417z" fill="#dbdce3"/>
  <path d="m38.459 58.467c0-1.925 0.2058-2.7125 0.45732-1.75 0.25153 0.9625 0.25153 2.5375 0 3.5-0.25153 0.9625-0.45732 0.175-0.45732-1.75zm12.173-5.25-1.905-2.25 2.25 1.905c2.1144 1.7902 2.7052 2.595 1.905 2.595-0.18976 0-1.2023-1.0125-2.25-2.25zm5.595-0.25c1.2917-1.375 2.5736-2.5 2.8486-2.5s-0.55688 1.125-1.8486 2.5-2.5736 2.5-2.8486 2.5 0.55688-1.125 1.8486-2.5zm-17.768-48.5c0-1.925 0.2058-2.7125 0.45732-1.75 0.25153 0.9625 0.25153 2.5375 0 3.5-0.25153 0.9625-0.45732 0.175-0.45732-1.75z" fill="#feaa57"/>
  <path d="m34.422 57.967c0.02038-1.65 0.2445-2.2039 0.49804-1.231 0.25354 0.97297 0.23687 2.323-0.03705 3-0.27393 0.67703-0.48137-0.11903-0.46099-1.769zm19.805-40.109c0-0.41925 0.97844-1.8038 2.1743-3.0767l2.1743-2.3145-4.7922-5.5 5.7478 5.3497-2.6521 3.1519c-1.4587 1.7335-2.6521 2.8088-2.6521 2.3896zm-19.768-13.391c0-1.925 0.2058-2.7125 0.45732-1.75 0.25153 0.9625 0.25153 2.5375 0 3.5-0.25153 0.9625-0.45732 0.175-0.45732-1.75z" fill="#fea246"/>
  <path d="m34.784 61.56c-0.30822-0.49871 0.34022-0.67122 1.441-0.38337 2.335 0.61061 2.6301 1.2901 0.5604 1.2901-0.79254 0-1.6932-0.40803-2.0014-0.90674zm21.367-13.843-2.4243-2.75 2.75 2.4243c2.5703 2.2659 3.2086 3.0757 2.4243 3.0757-0.17913 0-1.4166-1.2375-2.75-2.75zm-13.052-25c-1.2439-1.5861-1.2085-1.6214 0.37756-0.37756 1.6657 1.3064 2.1955 2.1276 1.3724 2.1276-0.20766 0-0.99516-0.7875-1.75-1.75zm7.1276-12.628c0-0.20766 0.7875-0.99516 1.75-1.75 1.5861-1.2439 1.6214-1.2085 0.37756 0.37756-1.3064 1.6657-2.1276 2.1955-2.1276 1.3724z" fill="#fd9933"/>
  <path d="m34.526 50.467c0-3.025 0.18747-4.2625 0.41659-2.75 0.22912 1.5125 0.22912 3.9875 0 5.5-0.22912 1.5125-0.41659 0.275-0.41659-2.75zm0-38c0-3.025 0.18747-4.2625 0.41659-2.75 0.22912 1.5125 0.22912 3.9875 0 5.5-0.22912 1.5125-0.41659 0.275-0.41659-2.75z" fill="#d98536"/>
  <path d="m58.977 34.805c0.6875-0.27741 1.8125-0.27741 2.5 0 0.6875 0.27741 0.125 0.50439-1.25 0.50439s-1.9375-0.22697-1.25-0.50439zm-22.938-34.021c0.72188-0.28887 1.5844-0.25334 1.9167 0.078947 0.33229 0.33229-0.25833 0.56864-1.3125 0.52522-1.1649-0.047984-1.4019-0.28494-0.60417-0.60417z" fill="#fd8407"/>
  <path d="m35.438 52.846 0.28893-8.6214 3.4654-1.1286c10.479-3.4129 10.472-19.261-0.010336-23.378l-3.955-1.5536v-8.3483c0-6.7541 0.28645-8.3483 1.5-8.3483 1.0228 0 1.5044 1.0339 1.5138 3.25 0.01299 3.0667 0.33129 3.3509 5.6442 5.0388 5.5427 1.7609 5.6644 1.7569 7.8067-0.25561l2.1762-2.0444 4.7078 5.0112-4.3381 4.6177 2.1932 5.1912c2.0769 4.9159 3.0214 5.638 6.8924 5.2695 1.224-0.11652 1.5962 0.79309 1.5962 3.9013 0 3.9845-0.05253 4.0438-3.0962 3.4979-2.9904-0.53636-3.1716-0.35844-5.3067 5.2111l-2.2105 5.7664 4.2697 4.5449-4.7171 5.0211-5.1315-4.8219-3.4844 1.9004c-1.9164 1.0452-4.2789 1.9004-5.25 1.9004-1.3512 0-1.7656 0.82155-1.7656 3.5 0 2.4838-0.44682 3.5-1.5389 3.5-1.2886 0-1.4919-1.4025-1.25-8.6214z" fill="#fd7e00"/>
  <path d="m33.479 50.967c0.0111-2.2 0.21588-2.9823 0.45508-1.7383 0.23919 1.2439 0.23011 3.0439-0.02018 4-0.25029 0.95609-0.446-0.06166-0.4349-2.2617zm0.02018-39.5c0-2.475 0.19502-3.4875 0.43337-2.25 0.23835 1.2375 0.23835 3.2625 0 4.5s-0.43337 0.225-0.43337-2.25z" fill="#262b57"/>
  <path d="m24.727 53.078c-15.351-6.7061-18.979-27.288-6.8416-38.808 3.127-2.9678 9.1411-5.803 12.309-5.803 1.6817 0 2.0321 0.6469 2.0321 3.7511 0 3.4237-0.37006 3.9294-4.2403 5.7948-11.732 5.6543-11.791 21.456-0.09959 26.628 4.0643 1.7978 4.3399 2.1708 4.3399 5.873 0 3.4446-0.2895 3.9482-2.25 3.9141-1.2375-0.02153-3.6-0.6289-5.25-1.3497z" fill="#0a1042"/>
  <path d="m32.499 50.467c0-2.475 0.19502-3.4875 0.43337-2.25s0.23835 3.2625 0 4.5-0.43337 0.225-0.43337-2.25zm0-38c0-2.475 0.19502-3.4875 0.43337-2.25 0.23835 1.2375 0.23835 3.2625 0 4.5s-0.43337 0.225-0.43337-2.25z" fill="#060e43"/>
 </g>
</svg>
